<?xml version="1.0"?>
<!DOCTYPE svg PUBLIC "-//W3C//DTD SVG 1.1//EN"
"http://www.w3.org/Graphics/SVG/1.1/DTD/svg11.dtd">
<svg version="1.1" xmlns="http://www.w3.org/2000/svg"
xmlns:xlink="http://www.w3.org/1999/xlink"
width="600px" height="600px"
viewBox="0 0 3 2"
preserveAspectRatio="xMidYMid">

<defs>



<g id = "kotecek" >
<animateTransform attributeName="transform" type="rotate" from="0 0.45 1" to="360 0.2 1" dur="10s" repeatCount="indefinite" />
<polygon points = "0.6,1.25 0.6,1.1 0.45,0.8 0.6,0.65 0.6,0.5 0.5,0.4 0.45,0.5 0.3,0.5 0.25,0.4 0.15,0.5 0.15,0.65 0.3,0.8 0.15,1.1 0.15,1.25 0.375,1.3" fill="orange" />
</g>

<g id="triangle">
<polygon points = "1.5,1 1.25,2.5 1.75,2.5"/>
</g>

<g id="line">
<polygon points = "0.5,1.1 0.5,0.95 2.5,0.95 2.5,1.1" fill = "red"/>
</g>

</defs>


<use xlink:href = "#kotecek" transform = "scale(0.4,0.4) translate(0.25,-1.25)" />
<use xlink:href = "#kotecek" transform = "scale(0.4,0.4) translate(2.1,-0.6)" />
<use xlink:href = "#line" transform = "scale(0.4,0.4) translate(0.5,-1.4) rotate(20)" />
<use xlink:href = "#triangle" transform = "scale(0.4,0.4) translate(0,-1)" fill = "purple"/>


<use xlink:href = "#kotecek" transform = "scale(0.3,0.3) translate(6.25,-1.75)" />
<use xlink:href = "#kotecek" transform = "scale(0.3,0.3) translate(8.1,-1.1)" />
<use xlink:href = "#line" transform = "scale(0.3,0.3) translate(6.5,-1.9) rotate(20)" />
<use xlink:href = "#triangle" transform = "scale(0.3,0.3) translate(6,-1.5)" fill = "green"/>

<use xlink:href = "#kotecek" transform = "scale(0.5,0.5) translate(1.75,0.7)" />
<use xlink:href = "#kotecek" transform = "scale(0.5,0.5) translate(3.6,1.4)" />
<use xlink:href = "#line" transform = "scale(0.5,0.5) translate(2,0.6) rotate(20)" />
<use xlink:href = "#triangle" transform = "scale(0.5,0.5) translate(1.5,1)" fill = "blue"/>


</svg>